<svg width="24" height="24" viewBox="0 0 24 24" fill="none" xmlns="http://www.w3.org/2000/svg">
<g clip-path="url(#clip0_12334_23283)">
<path d="M12 15C15.0376 15 17.5 12.5376 17.5 9.5C17.5 6.46243 15.0376 4 12 4C8.96243 4 6.5 6.46243 6.5 9.5C6.5 12.5376 8.96243 15 12 15Z" fill="#4F4F4F"/>
<path d="M21.39 19.4503C22.5835 17.9504 23.4004 16.1863 23.7722 14.3059C24.1439 12.4254 24.0598 10.4832 23.5268 8.64196C22.9938 6.80069 22.0275 5.11389 20.7088 3.72276C19.39 2.33164 17.7572 1.27668 15.947 0.646201C14.1368 0.0157186 12.2019 -0.171939 10.3042 0.0989378C8.40662 0.369815 6.6015 1.09134 5.04 2.20312C3.47849 3.3149 2.20605 4.78457 1.32918 6.48911C0.452312 8.19365 -0.00345967 10.0834 1.97732e-05 12.0003C0.00167846 14.7044 0.921964 17.3278 2.61002 19.4403C3.73435 20.8436 5.15968 21.9763 6.78067 22.7547C8.40165 23.5331 10.1768 23.9372 11.975 23.9372C13.7732 23.9372 15.5484 23.5331 17.1694 22.7547C18.7904 21.9763 20.2157 20.8436 21.34 19.4403L21.39 19.4503ZM12 2.0003C13.8571 2.0003 15.6776 2.51745 17.2573 3.49379C18.8371 4.47014 20.1138 5.86711 20.9443 7.52816C21.7748 9.18922 22.1264 11.0487 21.9596 12.8984C21.7928 14.748 21.1143 16.5146 20 18.0003C17.5139 16.7507 14.7817 16.0677 12 16.0003C9.21834 16.0677 6.48616 16.7507 4.00002 18.0003C2.88575 16.5146 2.20721 14.748 2.04043 12.8984C1.87365 11.0487 2.22522 9.18922 3.05575 7.52816C3.88628 5.86711 5.16295 4.47014 6.74271 3.49379C8.32247 2.51745 10.1429 2.0003 12 2.0003Z" fill="#4F4F4F"/>
</g>
<defs>
<clipPath id="clip0_12334_23283">
<rect width="24" height="24" fill="white"/>
</clipPath>
</defs>
</svg>
